{
    "asset" : {
        "generator" : "Khronos glTF Blender I/O v3.2.43",
        "version" : "2.0"
    },
    "scene" : 0,
    "scenes" : [
        {
            "name" : "Scene",
            "nodes" : [
                0
            ]
        }
    ],
    "nodes" : [
        {
            "mesh" : 0,
            "name" : "strawberry_strawberry_0",
            "rotation" : [
                -0.7071068286895752,
                0,
                0,
                0.7071067094802856
            ],
            "scale" : [
                86.70899963378906,
                86.70901489257812,
                86.70901489257812
            ],
            "translation" : [
                4.860494613647461,
                5.632865905761719,
                -20.18047332763672
            ]
        }
    ],
    "animations" : [
        {
            "channels" : [
                {
                    "sampler" : 0,
                    "target" : {
                        "node" : 0,
                        "path" : "translation"
                    }
                },
                {
                    "sampler" : 1,
                    "target" : {
                        "node" : 0,
                        "path" : "rotation"
                    }
                },
                {
                    "sampler" : 2,
                    "target" : {
                        "node" : 0,
                        "path" : "scale"
                    }
                }
            ],
            "name" : "strawberry_strawberry_0",
            "samplers" : [
                {
                    "input" : 4,
                    "interpolation" : "LINEAR",
                    "output" : 5
                },
                {
                    "input" : 4,
                    "interpolation" : "LINEAR",
                    "output" : 6
                },
                {
                    "input" : 4,
                    "interpolation" : "LINEAR",
                    "output" : 7
                }
            ]
        }
    ],
    "materials" : [
        {
            "doubleSided" : true,
            "name" : "strawberry",
            "pbrMetallicRoughness" : {}
        }
    ],
    "meshes" : [
        {
            "name" : "strawberry_strawberry_0",
            "primitives" : [
                {
                    "attributes" : {
                        "POSITION" : 0,
                        "NORMAL" : 1,
                        "TEXCOORD_0" : 2
                    },
                    "indices" : 3,
                    "material" : 0
                }
            ]
        }
    ],
    "accessors" : [
        {
            "bufferView" : 0,
            "componentType" : 5126,
            "count" : 301,
            "max" : [
                1.0845990180969238,
                1.1029345989227295,
                1.7187986373901367
            ],
            "min" : [
                -1.08526611328125,
                -1.1307696104049683,
                -1.684673547744751
            ],
            "type" : "VEC3"
        },
        {
            "bufferView" : 1,
            "componentType" : 5126,
            "count" : 301,
            "type" : "VEC3"
        },
        {
            "bufferView" : 2,
            "componentType" : 5126,
            "count" : 301,
            "type" : "VEC2"
        },
        {
            "bufferView" : 3,
            "componentType" : 5123,
            "count" : 840,
            "type" : "SCALAR"
        },
        {
            "bufferView" : 4,
            "componentType" : 5126,
            "count" : 81,
            "max" : [
                3.3333333333333335
            ],
            "min" : [
                0
            ],
            "type" : "SCALAR"
        },
        {
            "bufferView" : 5,
            "componentType" : 5126,
            "count" : 81,
            "type" : "VEC3"
        },
        {
            "bufferView" : 6,
            "componentType" : 5126,
            "count" : 81,
            "type" : "VEC4"
        },
        {
            "bufferView" : 7,
            "componentType" : 5126,
            "count" : 81,
            "type" : "VEC3"
        }
    ],
    "bufferViews" : [
        {
            "buffer" : 0,
            "byteLength" : 3612,
            "byteOffset" : 0
        },
        {
            "buffer" : 0,
            "byteLength" : 3612,
            "byteOffset" : 3612
        },
        {
            "buffer" : 0,
            "byteLength" : 2408,
            "byteOffset" : 7224
        },
        {
            "buffer" : 0,
            "byteLength" : 1680,
            "byteOffset" : 9632
        },
        {
            "buffer" : 0,
            "byteLength" : 324,
            "byteOffset" : 11312
        },
        {
            "buffer" : 0,
            "byteLength" : 972,
            "byteOffset" : 11636
        },
        {
            "buffer" : 0,
            "byteLength" : 1296,
            "byteOffset" : 12608
        },
        {
            "buffer" : 0,
            "byteLength" : 972,
            "byteOffset" : 13904
        }
    ],
    "buffers" : [
        {
            "byteLength" : 14876,
            "uri" : "data:application/octet-stream;base64,"
        }
    ]
}
