{
    "asset" : {
        "generator" : "Khronos glTF Blender I/O v3.2.43",
        "version" : "2.0"
    },
    "scene" : 0,
    "scenes" : [
        {
            "name" : "Scene",
            "nodes" : [
                0
            ]
        }
    ],
    "nodes" : [
        {
            "mesh" : 0,
            "name" : "Suzanne",
            "rotation" : [
                -0.06798221915960312,
                0,
                0,
                0.9976865649223328
            ]
        }
    ],
    "meshes" : [
        {
            "name" : "Suzanne",
            "primitives" : [
                {
                    "attributes" : {
                        "POSITION" : 0,
                        "NORMAL" : 1,
                        "TEXCOORD_0" : 2
                    },
                    "indices" : 3
                }
            ]
        }
    ],
    "accessors" : [
        {
            "bufferView" : 0,
            "componentType" : 5126,
            "count" : 3450,
            "max" : [
                1.5297865867614746,
                0.984375,
                0.8515625
            ],
            "min" : [
                -1.4010214805603027,
                -3.7327399253845215,
                -0.8515625
            ],
            "type" : "VEC3"
        },
        {
            "bufferView" : 1,
            "componentType" : 5126,
            "count" : 3450,
            "type" : "VEC3"
        },
        {
            "bufferView" : 2,
            "componentType" : 5126,
            "count" : 3450,
            "type" : "VEC2"
        },
        {
            "bufferView" : 3,
            "componentType" : 5123,
            "count" : 5250,
            "type" : "SCALAR"
        }
    ],
    "bufferViews" : [
        {
            "buffer" : 0,
            "byteLength" : 41400,
            "byteOffset" : 0
        },
        {
            "buffer" : 0,
            "byteLength" : 41400,
            "byteOffset" : 41400
        },
        {
            "buffer" : 0,
            "byteLength" : 27600,
            "byteOffset" : 82800
        },
        {
            "buffer" : 0,
            "byteLength" : 10500,
            "byteOffset" : 110400
        }
    ],
    "buffers" : [
        {
            "byteLength" : 120900,
            "uri" : "data:application/octet-stream;base64,"
        }
    ]
}
