{
    "asset" : {
        "generator" : "Khronos glTF Blender I/O v3.2.43",
        "version" : "2.0"
    },
    "extensionsUsed" : [
        "KHR_materials_unlit"
    ],
    "scene" : 0,
    "scenes" : [
        {
            "name" : "Scene",
            "nodes" : [
                0
            ]
        }
    ],
    "nodes" : [
        {
            "mesh" : 0,
            "name" : "Cube",
            "rotation" : [
                0,
                -0.987417459487915,
                0,
                0.15813544392585754
            ],
            "translation" : [
                0.018271025270223618,
                0.18370945751667023,
                -0.12518009543418884
            ]
        }
    ],
    "animations" : [
        {
            "channels" : [
                {
                    "sampler" : 0,
                    "target" : {
                        "node" : 0,
                        "path" : "translation"
                    }
                },
                {
                    "sampler" : 1,
                    "target" : {
                        "node" : 0,
                        "path" : "rotation"
                    }
                }
            ],
            "name" : "CubeAction",
            "samplers" : [
                {
                    "input" : 20,
                    "interpolation" : "LINEAR",
                    "output" : 21
                },
                {
                    "input" : 20,
                    "interpolation" : "LINEAR",
                    "output" : 22
                }
            ]
        }
    ],
    "materials" : [
        {
            "doubleSided" : true,
            "name" : "Material.002",
            "pbrMetallicRoughness" : {
                "baseColorFactor" : [
                    0.1327977478504181,
                    0,
                    0.14320319890975952,
                    1
                ],
                "metallicFactor" : 0,
                "roughnessFactor" : 0.5
            }
        },
        {
            "doubleSided" : true,
            "name" : "Material.003",
            "pbrMetallicRoughness" : {
                "baseColorFactor" : [
                    0,
                    0,
                    0,
                    1
                ],
                "metallicFactor" : 0.3954545557498932,
                "roughnessFactor" : 0.5
            }
        },
        {
            "doubleSided" : true,
            "name" : "Material.001",
            "pbrMetallicRoughness" : {
                "baseColorFactor" : [
                    0.07440215349197388,
                    0,
                    0.08001131564378738,
                    1
                ],
                "roughnessFactor" : 0
            }
        },
        {
            "doubleSided" : true,
            "name" : "Material.005",
            "pbrMetallicRoughness" : {}
        },
        {
            "doubleSided" : true,
            "extensions" : {
                "KHR_materials_unlit" : {}
            },
            "name" : "Material.006",
            "pbrMetallicRoughness" : {
                "baseColorTexture" : {
                    "index" : 0,
                    "texCoord" : 0
                },
                "metallicFactor" : 0,
                "roughnessFactor" : 0.9
            }
        }
    ],
    "meshes" : [
        {
            "name" : "Cube.001",
            "primitives" : [
                {
                    "attributes" : {
                        "POSITION" : 0,
                        "NORMAL" : 1,
                        "TEXCOORD_0" : 2
                    },
                    "indices" : 3,
                    "material" : 0
                },
                {
                    "attributes" : {
                        "POSITION" : 4,
                        "NORMAL" : 5,
                        "TEXCOORD_0" : 6
                    },
                    "indices" : 7,
                    "material" : 1
                },
                {
                    "attributes" : {
                        "POSITION" : 8,
                        "NORMAL" : 9,
                        "TEXCOORD_0" : 10
                    },
                    "indices" : 11,
                    "material" : 2
                },
                {
                    "attributes" : {
                        "POSITION" : 12,
                        "NORMAL" : 13,
                        "TEXCOORD_0" : 14
                    },
                    "indices" : 15,
                    "material" : 3
                },
                {
                    "attributes" : {
                        "POSITION" : 16,
                        "NORMAL" : 17,
                        "TEXCOORD_0" : 18
                    },
                    "indices" : 19,
                    "material" : 4
                }
            ]
        }
    ],
    "textures" : [
        {
            "sampler" : 0,
            "source" : 0
        }
    ],
    "images" : [
        {
            "bufferView" : 20,
            "mimeType" : "image/png",
            "name" : "Screen Shot 2022-09-20 at 9.32.18 AM"
        }
    ],
    "accessors" : [
        {
            "bufferView" : 0,
            "componentType" : 5126,
            "count" : 430,
            "max" : [
                0.03941025957465172,
                0.08000587671995163,
                0.003932794090360403
            ],
            "min" : [
                -0.03915546461939812,
                -0.0802067369222641,
                -0.003932794090360403
            ],
            "type" : "VEC3"
        },
        {
            "bufferView" : 1,
            "componentType" : 5126,
            "count" : 430,
            "type" : "VEC3"
        },
        {
            "bufferView" : 2,
            "componentType" : 5126,
            "count" : 430,
            "type" : "VEC2"
        },
        {
            "bufferView" : 3,
            "componentType" : 5123,
            "count" : 654,
            "type" : "SCALAR"
        },
        {
            "bufferView" : 4,
            "componentType" : 5126,
            "count" : 296,
            "max" : [
                0.0386938750743866,
                0.08000587671995163,
                -0.003924825694411993
            ],
            "min" : [
                -0.0387139692902565,
                -0.0802067369222641,
                -0.004410784225910902
            ],
            "type" : "VEC3"
        },
        {
            "bufferView" : 5,
            "componentType" : 5126,
            "count" : 296,
            "type" : "VEC3"
        },
        {
            "bufferView" : 6,
            "componentType" : 5126,
            "count" : 296,
            "type" : "VEC2"
        },
        {
            "bufferView" : 7,
            "componentType" : 5123,
            "count" : 444,
            "type" : "SCALAR"
        },
        {
            "bufferView" : 8,
            "componentType" : 5126,
            "count" : 296,
            "max" : [
                0.0386938750743866,
                0.08000587671995163,
                0.003932794090360403
            ],
            "min" : [
                -0.03915546461939812,
                -0.0802067369222641,
                -0.003932794090360403
            ],
            "type" : "VEC3"
        },
        {
            "bufferView" : 9,
            "componentType" : 5126,
            "count" : 296,
            "type" : "VEC3"
        },
        {
            "bufferView" : 10,
            "componentType" : 5126,
            "count" : 296,
            "type" : "VEC2"
        },
        {
            "bufferView" : 11,
            "componentType" : 5123,
            "count" : 444,
            "type" : "SCALAR"
        },
        {
            "bufferView" : 12,
            "componentType" : 5126,
            "count" : 74,
            "max" : [
                0.0386938750743866,
                0.08000587671995163,
                0.003932794090360403
            ],
            "min" : [
                -0.0387139692902565,
                -0.0802067369222641,
                0.003932794090360403
            ],
            "type" : "VEC3"
        },
        {
            "bufferView" : 13,
            "componentType" : 5126,
            "count" : 74,
            "type" : "VEC3"
        },
        {
            "bufferView" : 14,
            "componentType" : 5126,
            "count" : 74,
            "type" : "VEC2"
        },
        {
            "bufferView" : 15,
            "componentType" : 5123,
            "count" : 216,
            "type" : "SCALAR"
        },
        {
            "bufferView" : 16,
            "componentType" : 5126,
            "count" : 74,
            "max" : [
                0.035345323383808136,
                0.07750395685434341,
                -0.004410784225910902
            ],
            "min" : [
                -0.03553197905421257,
                -0.07781772315502167,
                -0.004410784225910902
            ],
            "type" : "VEC3"
        },
        {
            "bufferView" : 17,
            "componentType" : 5126,
            "count" : 74,
            "type" : "VEC3"
        },
        {
            "bufferView" : 18,
            "componentType" : 5126,
            "count" : 74,
            "type" : "VEC2"
        },
        {
            "bufferView" : 19,
            "componentType" : 5123,
            "count" : 216,
            "type" : "SCALAR"
        },
        {
            "bufferView" : 21,
            "componentType" : 5126,
            "count" : 50,
            "max" : [
                2.0833333333333335
            ],
            "min" : [
                0.041666666666666664
            ],
            "type" : "SCALAR"
        },
        {
            "bufferView" : 22,
            "componentType" : 5126,
            "count" : 50,
            "type" : "VEC3"
        },
        {
            "bufferView" : 23,
            "componentType" : 5126,
            "count" : 50,
            "type" : "VEC4"
        }
    ],
    "bufferViews" : [
        {
            "buffer" : 0,
            "byteLength" : 5160,
            "byteOffset" : 0
        },
        {
            "buffer" : 0,
            "byteLength" : 5160,
            "byteOffset" : 5160
        },
        {
            "buffer" : 0,
            "byteLength" : 3440,
            "byteOffset" : 10320
        },
        {
            "buffer" : 0,
            "byteLength" : 1308,
            "byteOffset" : 13760
        },
        {
            "buffer" : 0,
            "byteLength" : 3552,
            "byteOffset" : 15068
        },
        {
            "buffer" : 0,
            "byteLength" : 3552,
            "byteOffset" : 18620
        },
        {
            "buffer" : 0,
            "byteLength" : 2368,
            "byteOffset" : 22172
        },
        {
            "buffer" : 0,
            "byteLength" : 888,
            "byteOffset" : 24540
        },
        {
            "buffer" : 0,
            "byteLength" : 3552,
            "byteOffset" : 25428
        },
        {
            "buffer" : 0,
            "byteLength" : 3552,
            "byteOffset" : 28980
        },
        {
            "buffer" : 0,
            "byteLength" : 2368,
            "byteOffset" : 32532
        },
        {
            "buffer" : 0,
            "byteLength" : 888,
            "byteOffset" : 34900
        },
        {
            "buffer" : 0,
            "byteLength" : 888,
            "byteOffset" : 35788
        },
        {
            "buffer" : 0,
            "byteLength" : 888,
            "byteOffset" : 36676
        },
        {
            "buffer" : 0,
            "byteLength" : 592,
            "byteOffset" : 37564
        },
        {
            "buffer" : 0,
            "byteLength" : 432,
            "byteOffset" : 38156
        },
        {
            "buffer" : 0,
            "byteLength" : 888,
            "byteOffset" : 38588
        },
        {
            "buffer" : 0,
            "byteLength" : 888,
            "byteOffset" : 39476
        },
        {
            "buffer" : 0,
            "byteLength" : 592,
            "byteOffset" : 40364
        },
        {
            "buffer" : 0,
            "byteLength" : 432,
            "byteOffset" : 40956
        },
        {
            "buffer" : 0,
            "byteLength" : 1650231,
            "byteOffset" : 41388
        },
        {
            "buffer" : 0,
            "byteLength" : 200,
            "byteOffset" : 1691620
        },
        {
            "buffer" : 0,
            "byteLength" : 600,
            "byteOffset" : 1691820
        },
        {
            "buffer" : 0,
            "byteLength" : 800,
            "byteOffset" : 1692420
        }
    ],
    "samplers" : [
        {
            "magFilter" : 9729,
            "minFilter" : 9987
        }
    ],
    "buffers" : [
        {
            "byteLength" : 1693220,
            "uri" : "data:application/octet-stream;base64,"
        }
    ]
}
