{
    "asset" : {
        "generator" : "Khronos glTF Blender I/O v3.2.43",
        "version" : "2.0"
    },
    "scene" : 0,
    "scenes" : [
        {
            "name" : "Scene",
            "nodes" : [
                0,
                1,
                2
            ]
        }
    ],
    "nodes" : [
        {
            "mesh" : 0,
            "name" : "pole.001"
        },
        {
            "mesh" : 1,
            "name" : "Net.001"
        },
        {
            "mesh" : 2,
            "name" : "Pole"
        }
    ],
    "materials" : [
        {
            "doubleSided" : true,
            "name" : "IronPole",
            "pbrMetallicRoughness" : {
                "baseColorFactor" : [
                    0.800000011920929,
                    0.800000011920929,
                    0.800000011920929,
                    1
                ],
                "metallicFactor" : 0.8684903979301453
            }
        },
        {
            "alphaMode" : "BLEND",
            "doubleSided" : true,
            "name" : "Net",
            "pbrMetallicRoughness" : {
                "metallicFactor" : 0,
                "roughnessFactor" : 0.8818181753158569
            }
        },
        {
            "doubleSided" : true,
            "name" : "Pole",
            "pbrMetallicRoughness" : {
                "metallicFactor" : 0
            }
        }
    ],
    "meshes" : [
        {
            "name" : "BezierCurve.001",
            "primitives" : [
                {
                    "attributes" : {
                        "POSITION" : 0,
                        "NORMAL" : 1,
                        "TEXCOORD_0" : 2
                    },
                    "indices" : 3,
                    "material" : 0
                }
            ]
        },
        {
            "name" : "Plane.003",
            "primitives" : [
                {
                    "attributes" : {
                        "POSITION" : 4,
                        "NORMAL" : 5,
                        "TEXCOORD_0" : 6
                    },
                    "indices" : 7,
                    "material" : 1
                }
            ]
        },
        {
            "name" : "Cube.001",
            "primitives" : [
                {
                    "attributes" : {
                        "POSITION" : 8,
                        "NORMAL" : 9,
                        "TEXCOORD_0" : 10
                    },
                    "indices" : 11,
                    "material" : 2
                }
            ]
        }
    ],
    "accessors" : [
        {
            "bufferView" : 0,
            "componentType" : 5126,
            "count" : 2303,
            "max" : [
                1.3659158945083618,
                1.9762582778930664,
                -0.051694631576538086
            ],
            "min" : [
                -1.3659158945083618,
                9.532831609249115e-05,
                -1.0176315307617188
            ],
            "type" : "VEC3"
        },
        {
            "bufferView" : 1,
            "componentType" : 5126,
            "count" : 2303,
            "type" : "VEC3"
        },
        {
            "bufferView" : 2,
            "componentType" : 5126,
            "count" : 2303,
            "type" : "VEC2"
        },
        {
            "bufferView" : 3,
            "componentType" : 5123,
            "count" : 12348,
            "type" : "SCALAR"
        },
        {
            "bufferView" : 4,
            "componentType" : 5126,
            "count" : 6375,
            "max" : [
                1.4156484603881836,
                1.9592878818511963,
                -0.0572589635848999
            ],
            "min" : [
                -1.4220640659332275,
                0.03177320957183838,
                -0.972334623336792
            ],
            "type" : "VEC3"
        },
        {
            "bufferView" : 5,
            "componentType" : 5126,
            "count" : 6375,
            "type" : "VEC3"
        },
        {
            "bufferView" : 6,
            "componentType" : 5126,
            "count" : 6375,
            "type" : "VEC2"
        },
        {
            "bufferView" : 7,
            "componentType" : 5123,
            "count" : 33792,
            "type" : "SCALAR"
        },
        {
            "bufferView" : 8,
            "componentType" : 5126,
            "count" : 706,
            "max" : [
                1.4022084474563599,
                1.9967323541641235,
                0.05488879606127739
            ],
            "min" : [
                -1.4022084474563599,
                0,
                -0.05488879606127739
            ],
            "type" : "VEC3"
        },
        {
            "bufferView" : 9,
            "componentType" : 5126,
            "count" : 706,
            "type" : "VEC3"
        },
        {
            "bufferView" : 10,
            "componentType" : 5126,
            "count" : 706,
            "type" : "VEC2"
        },
        {
            "bufferView" : 11,
            "componentType" : 5123,
            "count" : 2856,
            "type" : "SCALAR"
        }
    ],
    "bufferViews" : [
        {
            "buffer" : 0,
            "byteLength" : 27636,
            "byteOffset" : 0
        },
        {
            "buffer" : 0,
            "byteLength" : 27636,
            "byteOffset" : 27636
        },
        {
            "buffer" : 0,
            "byteLength" : 18424,
            "byteOffset" : 55272
        },
        {
            "buffer" : 0,
            "byteLength" : 24696,
            "byteOffset" : 73696
        },
        {
            "buffer" : 0,
            "byteLength" : 76500,
            "byteOffset" : 98392
        },
        {
            "buffer" : 0,
            "byteLength" : 76500,
            "byteOffset" : 174892
        },
        {
            "buffer" : 0,
            "byteLength" : 51000,
            "byteOffset" : 251392
        },
        {
            "buffer" : 0,
            "byteLength" : 67584,
            "byteOffset" : 302392
        },
        {
            "buffer" : 0,
            "byteLength" : 8472,
            "byteOffset" : 369976
        },
        {
            "buffer" : 0,
            "byteLength" : 8472,
            "byteOffset" : 378448
        },
        {
            "buffer" : 0,
            "byteLength" : 5648,
            "byteOffset" : 386920
        },
        {
            "buffer" : 0,
            "byteLength" : 5712,
            "byteOffset" : 392568
        }
    ],
    "buffers" : [
        {
            "byteLength" : 398280,
            "uri" : "data:application/octet-stream;base64,"
        }
    ]
}
