{
    "asset" : {
        "generator" : "Khronos glTF Blender I/O v3.2.43",
        "version" : "2.0"
    },
    "scene" : 0,
    "scenes" : [
        {
            "extras" : {
                "blenderkitUI" : {},
                "uuid" : "6b22f64e-1667-4caf-8481-6060d37a21f9",
                "assets reported" : {}
            },
            "name" : "Scene",
            "nodes" : [
                0
            ]
        }
    ],
    "nodes" : [
        {
            "extras" : {
                "s_curve" : {},
                "blenderkit" : {},
                "ant_landscape" : {}
            },
            "mesh" : 0,
            "name" : "FootballBall",
            "translation" : [
                4.545275714917807e-06,
                0.34124812483787537,
                0
            ]
        }
    ],
    "materials" : [
        {
            "doubleSided" : true,
            "extras" : {
                "blenderkit" : {}
            },
            "name" : "White",
            "pbrMetallicRoughness" : {}
        },
        {
            "doubleSided" : true,
            "extras" : {
                "blenderkit" : {}
            },
            "name" : "Black",
            "pbrMetallicRoughness" : {}
        }
    ],
    "meshes" : [
        {
            "name" : "FootballBall",
            "primitives" : [
                {
                    "attributes" : {
                        "POSITION" : 0,
                        "NORMAL" : 1
                    },
                    "indices" : 2,
                    "material" : 0
                },
                {
                    "attributes" : {
                        "POSITION" : 3,
                        "NORMAL" : 4
                    },
                    "indices" : 5,
                    "material" : 1
                }
            ]
        }
    ],
    "accessors" : [
        {
            "bufferView" : 0,
            "componentType" : 5126,
            "count" : 2690,
            "max" : [
                0.34315311908721924,
                0.3287774324417114,
                0.3431938588619232
            ],
            "min" : [
                -0.34315311908721924,
                -0.3287774324417114,
                -0.3431938588619232
            ],
            "type" : "VEC3"
        },
        {
            "bufferView" : 1,
            "componentType" : 5126,
            "count" : 2690,
            "type" : "VEC3"
        },
        {
            "bufferView" : 2,
            "componentType" : 5123,
            "count" : 15120,
            "type" : "SCALAR"
        },
        {
            "bufferView" : 3,
            "componentType" : 5126,
            "count" : 1452,
            "max" : [
                0.33772146701812744,
                0.3432399034500122,
                0.33566728234291077
            ],
            "min" : [
                -0.33772146701812744,
                -0.3432399034500122,
                -0.33566728234291077
            ],
            "type" : "VEC3"
        },
        {
            "bufferView" : 4,
            "componentType" : 5126,
            "count" : 1452,
            "type" : "VEC3"
        },
        {
            "bufferView" : 5,
            "componentType" : 5123,
            "count" : 7560,
            "type" : "SCALAR"
        }
    ],
    "bufferViews" : [
        {
            "buffer" : 0,
            "byteLength" : 32280,
            "byteOffset" : 0
        },
        {
            "buffer" : 0,
            "byteLength" : 32280,
            "byteOffset" : 32280
        },
        {
            "buffer" : 0,
            "byteLength" : 30240,
            "byteOffset" : 64560
        },
        {
            "buffer" : 0,
            "byteLength" : 17424,
            "byteOffset" : 94800
        },
        {
            "buffer" : 0,
            "byteLength" : 17424,
            "byteOffset" : 112224
        },
        {
            "buffer" : 0,
            "byteLength" : 15120,
            "byteOffset" : 129648
        }
    ],
    "buffers" : [
        {
            "byteLength" : 144768,
            "uri" : "data:application/octet-stream;base64,"
        }
    ]
}
